<?xml version="1.0" standalone="no"?>
<!DOCTYPE svg PUBLIC "-//W3C//DTD SVG 20010904//EN"
 "http://www.w3.org/TR/2001/REC-SVG-20010904/DTD/svg10.dtd">
<svg version="1.0" xmlns="http://www.w3.org/2000/svg"
 width="128.000000pt" height="128.000000pt" viewBox="0 0 128.000000 128.000000"
 preserveAspectRatio="xMidYMid meet">
<metadata>
Created by potrace 1.15, written by Peter Selinger 2001-2017
</metadata>
<g transform="translate(0.000000,128.000000) scale(0.100000,-0.100000)"
fill="#000000" stroke="none">
<path d="M520 1139 c-142 -15 -350 -93 -448 -167 l-22 -17 41 -56 41 -57 66
39 c209 122 467 153 682 80 90 -31 233 -101 245 -122 11 -17 23 -9 61 47 l39
56 -30 24 c-58 46 -229 124 -325 148 -111 28 -245 37 -350 25z"/>
<path d="M500 875 c-84 -19 -142 -40 -206 -76 -80 -45 -81 -49 -39 -112 l37
-55 86 44 c116 60 218 81 313 65 88 -14 161 -42 228 -86 29 -20 55 -34 56 -33
1 2 19 27 39 57 34 50 35 55 20 72 -26 29 -163 96 -233 114 -91 23 -222 28
-301 10z"/>
<path d="M438 551 c-102 -42 -189 -79 -192 -82 -3 -3 84 -36 193 -73 l199 -68
119 42 c65 23 152 53 193 67 88 30 88 31 64 39 -10 4 -100 40 -198 81 -98 40
-182 72 -185 72 -3 -1 -90 -36 -193 -78z"/>
<path d="M390 342 l0 -57 121 -41 121 -42 121 42 122 41 3 53 c2 29 -1 52 -7
52 -5 0 -61 -18 -124 -40 -99 -35 -119 -39 -143 -29 -16 6 -71 26 -121 45
l-93 34 0 -58z"/>
</g>
</svg>
